<svg width="24" height="24" viewBox="0 0 24 24" fill="none" xmlns="http://www.w3.org/2000/svg">
<path d="M14.1697 20.8901C18.3537 20.6131 21.6857 17.2331 21.9597 12.9901C22.0127 12.1601 22.0127 11.3001 21.9597 10.4701C21.6857 6.22806 18.3537 2.85006 14.1697 2.57106C12.7246 2.47583 11.2748 2.47583 9.82973 2.57106C5.64573 2.84906 2.31373 6.22806 2.03973 10.4711C1.98676 11.3102 1.98676 12.1519 2.03973 12.9911C2.13973 14.5361 2.82273 15.9671 3.62773 17.1751C4.09473 18.0201 3.78673 19.0751 3.29973 19.9981C2.94973 20.6631 2.77373 20.9951 2.91473 21.2351C3.05473 21.4751 3.36973 21.4831 3.99873 21.4981C5.24373 21.5281 6.08273 21.1761 6.74873 20.6851C7.12573 20.4061 7.31473 20.2671 7.44473 20.2511C7.57473 20.2351 7.83173 20.3411 8.34373 20.5511C8.80373 20.7411 9.33873 20.8581 9.82873 20.8911C11.2537 20.9851 12.7427 20.9851 14.1707 20.8911" stroke="#F6E8CE" stroke-width="1.5" strokeLinecap="round" strokeLinejoin="round"/>
<path d="M7.5 15L9.342 9.474C9.38824 9.33609 9.47664 9.2162 9.59471 9.13126C9.71278 9.04632 9.85455 9.00062 10 9.00062C10.1455 9.00062 10.2872 9.04632 10.4053 9.13126C10.5234 9.2162 10.6118 9.33609 10.658 9.474L12.5 15M15.5 9V15M8.5 13H11.5" stroke="#F6E8CE" stroke-width="1.5" strokeLinecap="round" strokeLinejoin="round"/>
</svg>
