<svg width="50" height="57" viewBox="0 0 50 57" fill="none" xmlns="http://www.w3.org/2000/svg">
<g clip-path="url(#clip0_1057_623)">
<path d="M49.3639 42.1873C49.7562 41.508 50 40.7425 50 40.0551V16.1946C50 15.5072 49.7565 14.7419 49.3641 14.0625L25 28.1249L49.3639 42.1873Z" fill="#00599C"/>
<path d="M27.1656 55.7343L47.8356 43.8041C48.431 43.4604 48.9722 42.867 49.3645 42.1874L25.0006 28.125L0.636719 42.1876C1.02904 42.867 1.57038 43.4606 2.16564 43.8041L22.8356 55.7343C24.0263 56.4217 25.975 56.4217 27.1656 55.7343Z" fill="#004482"/>
<path d="M49.364 14.0624C48.9716 13.3829 48.4302 12.7894 47.835 12.4457L27.165 0.515537C25.9743 -0.171846 24.0257 -0.171846 22.835 0.515537L2.16503 12.4457C0.974183 13.1329 0 14.82 0 16.1946V40.0552C0 40.7426 0.243627 41.508 0.636111 42.1874L25 28.125L49.364 14.0624Z" fill="#659AD2"/>
<path d="M24.9987 44.7865C15.8087 44.7865 8.33203 37.3121 8.33203 28.1247C8.33203 18.9374 15.8087 11.4629 24.9987 11.4629C30.9288 11.4629 36.4593 14.6531 39.4319 19.7886L32.219 23.9612C30.7312 21.3907 27.9644 19.7938 24.9987 19.7938C20.4036 19.7938 16.6654 23.531 16.6654 28.1247C16.6654 32.7183 20.4036 36.4556 24.9987 36.4556C27.9647 36.4556 30.7315 34.8587 32.2194 32.2877L39.4324 36.4602C36.4598 41.5961 30.9291 44.7865 24.9987 44.7865Z" fill="white"/>
<path d="M41.6669 27.1994H39.8149V25.3481H37.9633V27.1994H36.1113V29.0507H37.9633V30.9021H39.8149V29.0507H41.6669V27.1994Z" fill="white"/>
<path d="M48.6102 27.1994H46.7583V25.3481H44.9067V27.1994H43.0547V29.0507H44.9067V30.9021H46.7583V29.0507H48.6102V27.1994Z" fill="white"/>
</g>
<defs>
<clipPath id="clip0_1057_623">
<rect width="50" height="56.25" fill="white"/>
</clipPath>
</defs>
</svg>
