<svg width="50" height="55" viewBox="0 0 50 55" fill="none" xmlns="http://www.w3.org/2000/svg">
<g clip-path="url(#clip0_1057_716)">
<path d="M22.3683 0.000374418C20.5014 0.00904904 18.7185 0.16827 17.1498 0.445856C12.5285 1.26229 11.6895 2.97114 11.6895 6.12257V10.2846H22.6101V11.672H11.6895H7.59103C4.41717 11.672 1.63806 13.5797 0.768789 17.2087C-0.233905 21.3684 -0.27838 23.9642 0.768789 28.3076C1.54507 31.5406 3.39893 33.8443 6.57278 33.8443H10.3276V28.8549C10.3276 25.2503 13.4463 22.0708 17.1498 22.0708H28.0577C31.0941 22.0708 33.5181 19.5708 33.5181 16.5214V6.12257C33.5181 3.16301 31.0213 0.939796 28.0577 0.445856C26.1817 0.133571 24.2352 -0.00830033 22.3683 0.000374418ZM16.4625 3.34785C17.5905 3.34785 18.5117 4.28409 18.5117 5.43525C18.5117 6.58234 17.5905 7.50993 16.4625 7.50993C15.3304 7.50993 14.4133 6.58234 14.4133 5.43525C14.4133 4.28409 15.3304 3.34785 16.4625 3.34785Z" fill="url(#paint0_linear_1057_716)"/>
<path d="M34.88 11.6721V16.5215C34.88 20.2812 31.6925 23.4456 28.0577 23.4456H17.1498C14.1619 23.4456 11.6895 26.0028 11.6895 28.995V39.3938C11.6895 42.3534 14.263 44.0942 17.1498 44.9432C20.6067 45.9597 23.9216 46.1434 28.0577 44.9432C30.8071 44.1472 33.5181 42.5452 33.5181 39.3938V35.2317H22.6101V33.8444H33.5181H38.9784C42.1523 33.8444 43.335 31.6306 44.4387 28.3077C45.5789 24.8868 45.5304 21.5971 44.4387 17.2088C43.6544 14.0492 42.1563 11.6721 38.9784 11.6721H34.88ZM28.745 38.0065C29.8771 38.0065 30.7943 38.934 30.7943 40.0811C30.7943 41.2323 29.8771 42.1685 28.745 42.1685C27.617 42.1685 26.6958 41.2323 26.6958 40.0811C26.6958 38.934 27.617 38.0065 28.745 38.0065Z" fill="url(#paint1_linear_1057_716)"/>
<path opacity="0.44382" d="M22.7342 54.8501C30.8167 54.8501 37.3688 53.5796 37.3688 52.0123C37.3688 50.4451 30.8167 49.1746 22.7342 49.1746C14.6517 49.1746 8.09961 50.4451 8.09961 52.0123C8.09961 53.5796 14.6517 54.8501 22.7342 54.8501Z" fill="url(#paint2_radial_1057_716)"/>
</g>
<defs>
<linearGradient id="paint0_linear_1057_716" x1="-1.3599e-07" y1="-1.18131e-07" x2="25.1819" y2="21.4584" gradientUnits="userSpaceOnUse">
<stop stop-color="#5A9FD4"/>
<stop offset="1" stop-color="#306998"/>
</linearGradient>
<linearGradient id="paint1_linear_1057_716" x1="28.4826" y1="39.7312" x2="19.4483" y2="27.0715" gradientUnits="userSpaceOnUse">
<stop stop-color="#FFD43B"/>
<stop offset="1" stop-color="#FFE873"/>
</linearGradient>
<radialGradient id="paint2_radial_1057_716" cx="0" cy="0" r="1" gradientUnits="userSpaceOnUse" gradientTransform="translate(22.7342 52.0123) rotate(-90) scale(2.83777 12.4732)">
<stop stop-color="#B8B8B8" stop-opacity="0.498039"/>
<stop offset="1" stop-color="#7F7F7F" stop-opacity="0"/>
</radialGradient>
<clipPath id="clip0_1057_716">
<rect width="50" height="54.85" fill="white"/>
</clipPath>
</defs>
</svg>
