<svg width="50" height="57" viewBox="0 0 50 57" fill="none" xmlns="http://www.w3.org/2000/svg">
<path d="M4.63917 51.0943L-0.00195312 0.00292969L49.9974 0.0224299L45.3953 51.0553L24.9587 56.8274L4.63917 51.0943ZM41.6317 48.3057L45.5123 4.54655H25.0367L25.1927 52.8103L41.6317 48.3057ZM23.1257 10.9622H18.153L18.0945 37.1514L8.44177 34.5189L8.46127 40.5055L23.1257 44.4641V10.9622Z" fill="#D4B830"/>
<path opacity="0.986" d="M8.46091 40.5052L8.44141 34.5186C8.44141 34.5186 14.6036 36.2541 18.0942 37.1511L18.1527 10.9814H23.1253V44.4638L8.46091 40.5052Z" fill="#EBEBEB" fill-opacity="0.9216"/>
<path d="M25.0371 4.52734H45.5127L41.6321 48.2865L25.0371 52.7911V4.52734ZM40.579 40.9543L41.9246 24.5934L31.9793 25.7049V16.9687L42.5876 16.9297L43.0166 10.9625L27.0067 11.0405L27.2212 32.7641L36.8934 31.1066L36.7569 35.9427L27.0067 38.5363L27.1042 44.4644L40.579 40.9543Z" fill="#FDD83C"/>
</svg>
