<svg width="50" height="50" viewBox="0 0 50 50" fill="none" xmlns="http://www.w3.org/2000/svg">
<g clip-path="url(#clip0_1057_633)">
<path d="M25.0002 50.2403C38.94 50.2403 50.2405 38.9398 50.2405 24.9999C50.2405 11.06 38.94 -0.240479 25.0002 -0.240479C11.0603 -0.240479 -0.240234 11.06 -0.240234 24.9999C-0.240234 38.9398 11.0603 50.2403 25.0002 50.2403Z" fill="#1794D4"/>
<path d="M28.6058 8.77393H25V12.3797H28.6058V8.77393Z" fill="white"/>
<path d="M14.1836 14.1826H17.7894V17.7884H14.1836V14.1826Z" fill="white"/>
<path d="M6.97349 26.697C7.28159 31.9277 10.3967 39.4229 21.3938 39.4229C33.6534 39.4229 39.1221 30.4084 40.3241 25.9012C41.8264 25.9012 45.1919 24.9998 46.6342 21.394C45.7327 20.4926 42.127 20.4926 40.3241 21.394C40.3241 19.9517 39.4226 16.8868 37.6197 15.9854C36.4178 17.1873 34.5548 20.3123 36.7183 23.1969C35.8169 24.9998 33.4131 24.9998 32.2111 24.9998H8.67064C7.71605 24.9998 6.91735 25.744 6.97349 26.697Z" fill="white"/>
<path d="M12.3792 19.5913H8.77344V23.1971H12.3792V19.5913Z" fill="white"/>
<path d="M14.1836 19.5913H17.7894V23.1971H14.1836V19.5913Z" fill="white"/>
<path d="M23.1976 19.5913H19.5918V23.1971H23.1976V19.5913Z" fill="white"/>
<path d="M25 19.5913H28.6058V23.1971H25V19.5913Z" fill="white"/>
<path d="M34.014 19.5913H30.4082V23.1971H34.014V19.5913Z" fill="white"/>
<path d="M23.1976 14.1826H19.5918V17.7884H23.1976V14.1826Z" fill="white"/>
<path d="M25 14.1826H28.6058V17.7884H25V14.1826Z" fill="white"/>
</g>
<defs>
<clipPath id="clip0_1057_633">
<rect width="50" height="50" fill="white"/>
</clipPath>
</defs>
</svg>
