<svg width="50" height="69" viewBox="0 0 50 69" fill="none" xmlns="http://www.w3.org/2000/svg">
<path fill-rule="evenodd" clip-rule="evenodd" d="M49.1478 33.1454C49.1478 46.7601 38.314 57.7971 24.9498 57.7971C11.5858 57.7971 0.751953 46.7601 0.751953 33.1454C0.751953 19.5304 11.5858 8.49318 24.9498 8.49318C38.314 8.49318 49.1478 19.5304 49.1478 33.1454Z" fill="#D33833"/>
<path d="M1.73797 39.2507C1.73797 39.2507 -0.0137916 13.543 23.7695 12.8084L22.1103 10.054L9.20479 14.3693L5.5174 18.5927L2.29107 24.7444L0.447266 31.9058L1.00036 36.68" fill="#EF3D3A"/>
<path d="M8.37619 16.3284C4.13061 20.655 1.50341 26.6288 1.50341 33.2374C1.50341 39.8447 4.13061 45.8192 8.37619 50.1451C12.6238 54.4709 18.4777 57.1402 24.9493 57.1402C31.4212 57.1402 37.2754 54.4709 41.5227 50.1451C45.768 45.8192 48.3957 39.8447 48.3957 33.2374C48.3957 26.6288 45.768 20.655 41.5227 16.3284C37.2754 12.0034 31.4212 9.33415 24.9493 9.3336C18.4777 9.33415 12.6238 12.0034 8.37619 16.3284ZM7.30152 51.1915C2.78946 46.5955 0 40.2438 0 33.2374C0 26.23 2.78946 19.8788 7.30152 15.2826C11.8125 10.6855 18.0569 7.83603 24.9493 7.83686C31.8418 7.83603 38.0868 10.6855 42.5971 15.2826C47.1095 19.8788 49.8993 26.2305 49.8988 33.2374C49.8993 40.2438 47.1095 46.5955 42.5971 51.1915C38.0868 55.7884 31.8418 58.6375 24.9493 58.6375C18.0569 58.6375 11.8125 55.7884 7.30152 51.1915Z" fill="#231F20"/>
<path fill-rule="evenodd" clip-rule="evenodd" d="M35.1366 33.2821L31.4491 33.833L26.4712 34.3839L23.2446 34.4756L20.1105 34.3839L17.7136 33.6493L15.5934 31.354L13.9341 26.6715L13.5654 25.6615L11.353 24.9272L10.0624 22.8154L9.14062 19.7855L10.1548 17.1228L12.5514 16.2965L14.4872 17.2148L15.4092 19.2346L16.5154 19.0509L16.884 18.592L16.5154 16.4802L16.423 13.8175L16.9761 10.1451L16.9545 8.04732L18.6354 5.37087L21.5853 3.25906L26.7477 1.05553L32.4629 1.88186L37.4408 5.46259L39.7455 9.13504L41.2204 11.7977L41.589 18.4083L40.4828 24.1008L38.4549 29.1505L36.5191 31.8132" fill="#F0D6B7"/>
<path fill-rule="evenodd" clip-rule="evenodd" d="M32.0015 49.1655L18.8191 49.7164V51.9199L19.9253 59.6323L19.3722 60.2751L10.1541 57.1533L9.50862 56.0515L8.58683 45.6768L6.46692 39.4334L6.00586 37.9644L13.3803 32.9148L15.6851 31.9965L17.7129 34.4754L19.4644 36.0364L21.4926 36.679L22.4143 36.9544L23.5205 41.7286L24.3501 42.7386L26.4705 42.0041L24.9953 44.8505L33.0153 48.6146L32.0015 49.1655Z" fill="#335061"/>
<path fill-rule="evenodd" clip-rule="evenodd" d="M10.1541 17.1228L12.5506 16.2965L14.4865 17.2148L15.4085 19.2346L16.5147 19.0509L16.7912 17.9491L16.2381 15.8376L16.7912 10.7877L16.3302 8.03327L17.9895 6.10519L21.5846 3.25906L20.5706 1.88185L15.5005 4.36082L13.3803 6.01346L12.1819 8.58416L10.3383 11.0631L9.78516 14.0012L10.1541 17.1228Z" fill="#6D6B6D"/>
<path fill-rule="evenodd" clip-rule="evenodd" d="M13.9325 8.49255C13.9325 8.49255 15.3153 5.09554 20.8462 3.4429C26.3772 1.79025 21.1228 2.24914 21.1228 2.24914L15.1311 4.54466L12.8263 6.8399L11.8125 8.67627L13.9325 8.49255Z" fill="#DCD9D8"/>
<path fill-rule="evenodd" clip-rule="evenodd" d="M11.1679 16.4802C11.1679 16.4802 9.23206 10.0531 16.6067 9.13502L16.3302 8.03326L11.2603 9.22702L9.78516 14.0012L10.1541 17.1228L11.1679 16.4802Z" fill="#DCD9D8"/>
<path fill-rule="evenodd" clip-rule="evenodd" d="M14.1172 25.0191L15.3242 23.8542C15.3242 23.8542 15.869 23.9173 15.961 24.5599C16.053 25.2028 16.3296 30.987 20.2934 34.1089C20.655 34.3937 17.3437 33.6495 17.3437 33.6495L14.3937 29.059" fill="#F7E4CD"/>
<path fill-rule="evenodd" clip-rule="evenodd" d="M31.0807 23.2744C31.0807 23.2744 31.2956 20.4914 32.0481 20.7054C32.8006 20.9194 32.8006 21.6689 32.8006 21.6689C32.8006 21.6689 30.9732 22.8464 31.0807 23.2744Z" fill="#F7E4CD"/>
<path d="M38.7315 13.0833C38.7315 13.0833 37.2121 13.4028 37.0722 14.7359C36.9323 16.0693 38.7315 15.0114 39.008 14.9196" fill="#F7E4CD"/>
<path d="M27.577 13.1751C27.577 13.1751 25.5488 13.4505 25.5488 14.7357C25.5488 16.0212 27.8536 15.9295 28.4988 15.3786" fill="#F7E4CD"/>
<path fill-rule="evenodd" clip-rule="evenodd" d="M15.0386 19.143C15.0386 19.143 11.5355 17.0312 11.1669 19.0513C10.7982 21.0711 9.96834 22.5403 11.72 24.6519L10.5217 24.2847L9.41546 21.4386L9.04688 18.6842L11.1669 16.4804L13.5637 16.6641L14.9464 17.7658L15.0386 19.143Z" fill="#F7E4CD"/>
<path fill-rule="evenodd" clip-rule="evenodd" d="M16.6992 13.3584C16.6992 13.3584 18.2663 5.2789 26.1942 3.71797C32.7211 2.43304 36.1497 3.99341 37.4404 5.46234C37.4404 5.46234 31.6328 -1.4234 26.1018 0.688127C20.5708 2.79993 16.515 6.6561 16.607 9.13479C16.764 13.3567 16.6992 13.3584 16.6992 13.3584Z" fill="#F7E4CD"/>
<path fill-rule="evenodd" clip-rule="evenodd" d="M38.0858 6.38031C38.0858 6.38031 35.4127 6.28859 35.3203 8.67583C35.3203 8.67583 35.32 9.04299 35.5045 9.41016C35.5045 9.41016 37.6251 7.02291 38.9154 8.30839" fill="#F7E4CD"/>
<path fill-rule="evenodd" clip-rule="evenodd" d="M26.3783 9.65908C26.3783 9.65908 25.9181 5.99489 22.7816 8.12515C20.7536 9.50236 20.9381 11.4304 21.3067 11.7976C21.6754 12.165 21.5751 12.9046 21.8558 12.397C22.1363 11.8893 22.044 10.2367 23.0581 9.7778C24.0722 9.31864 25.7345 8.80577 26.3783 9.65908Z" fill="#F7E4CD"/>
<path fill-rule="evenodd" clip-rule="evenodd" d="M17.7129 34.4756L9.04789 38.3317C9.04789 38.3317 12.643 52.5629 10.7992 56.97L9.50862 56.5111L9.41648 51.0939L7.02002 40.811L6.00586 37.9646L15.0396 31.9051L17.7129 34.4756Z" fill="#49728B"/>
<path fill-rule="evenodd" clip-rule="evenodd" d="M18.6038 42.3469L19.8331 43.8408V49.3496H18.358C18.358 49.3496 18.1738 45.4934 18.1738 45.0342C18.1738 44.5751 18.358 42.9225 18.358 42.9225" fill="#49728B"/>
<path fill-rule="evenodd" clip-rule="evenodd" d="M18.6346 50.1759L14.4863 50.3593L15.6849 51.1857L18.6346 51.6448" fill="#49728B"/>
<path fill-rule="evenodd" clip-rule="evenodd" d="M32.8301 49.2577L36.2408 49.1659L37.0704 57.6129L33.5674 58.0718L32.8301 49.2577Z" fill="#335061"/>
<path fill-rule="evenodd" clip-rule="evenodd" d="M33.752 49.2578L38.9143 48.9824C38.9143 48.9824 41.0343 43.6572 41.0343 43.3818C41.0343 43.1063 42.8781 35.6695 42.8781 35.6695L38.7298 31.3544L37.9002 30.6198L35.6878 32.8234V41.362L33.752 49.2578Z" fill="#335061"/>
<path fill-rule="evenodd" clip-rule="evenodd" d="M36.0563 48.6149L32.8301 49.2576L33.2908 51.8286C34.4891 52.3794 36.5173 50.9102 36.5173 50.9102" fill="#49728B"/>
<path fill-rule="evenodd" clip-rule="evenodd" d="M36.1504 32.5476L42.6031 37.3218L42.7876 35.1183L37.9018 30.6195L36.1504 32.5476Z" fill="#49728B"/>
<path fill-rule="evenodd" clip-rule="evenodd" d="M21.835 67.3456L19.9265 59.6321L18.9773 53.9408L18.8203 49.7163L27.4583 49.2583L32.8323 49.2574L32.3437 58.8987L33.1733 66.3356L33.0812 67.7128L26.0755 68.2637L21.835 67.3456Z" fill="white"/>
<path fill-rule="evenodd" clip-rule="evenodd" d="M31.6321 49.1656C31.6321 49.1656 31.1714 58.7144 32.5542 65.5084C32.5542 65.5084 29.7887 67.253 25.7324 67.7119L33.4759 67.4365L34.3976 66.8856L33.2914 51.8283L33.0149 48.6145" fill="#DCD9D8"/>
<path fill-rule="evenodd" clip-rule="evenodd" d="M37.2289 56.8789L40.824 55.8689L47.6454 55.5017L48.6595 52.3802L46.8157 46.963L44.6957 46.6876L41.7458 47.6057L38.9156 48.982L37.4131 48.7075L36.2422 49.1657" fill="white"/>
<path fill-rule="evenodd" clip-rule="evenodd" d="M37.1641 55.0416C37.1641 55.0416 39.5606 53.9401 39.9295 54.0319L38.9157 48.9819L40.114 48.5231C40.114 48.5231 40.9437 53.2972 40.9437 53.8481C40.9437 53.8481 46.1057 54.1235 46.5667 54.1235C46.5667 54.1235 47.6729 52.0118 47.3964 49.8083L48.4105 52.7463L48.5026 54.399L47.0277 56.6025L45.3684 56.9697L42.6029 56.878L41.6812 55.6845L38.4547 56.1434L37.4406 56.5108" fill="#DCD9D8"/>
<path d="M33.5408 48.5242L31.5129 43.3825L29.3926 40.3526C29.3926 40.3526 29.8533 39.0672 30.4988 39.0672C31.1442 39.0672 32.6191 39.0672 32.6191 39.0672L34.647 39.8018L34.4628 43.1988L33.5408 48.5242Z" fill="white"/>
<path fill-rule="evenodd" clip-rule="evenodd" d="M33.9377 46.7789C33.9377 46.7789 31.3564 41.8212 31.3564 41.0867C31.3564 41.0867 31.8171 39.9849 32.4625 40.2604C33.108 40.5358 34.4908 41.2701 34.4908 41.2701V39.5258L31.3564 38.8829L29.2363 39.1583L32.8315 47.6053L33.5687 47.6973" fill="#DCD9D8"/>
<path d="M22.6636 34.6604L20.1098 34.3839L17.7129 33.6493V34.4756L18.884 35.7619L22.5713 37.4146" fill="white"/>
<path fill-rule="evenodd" clip-rule="evenodd" d="M18.5422 34.9356C18.5422 34.9356 21.4 36.1294 22.3218 35.8539L22.4135 36.9546L19.8329 36.4048L18.2656 35.303L18.5422 34.9356Z" fill="#DCD9D8"/>
<path fill-rule="evenodd" clip-rule="evenodd" d="M37.2182 39.3799C35.6541 39.3342 34.2409 39.1491 33.0036 38.8015C33.0877 38.2963 32.9304 37.8005 33.0567 37.4366C33.4016 37.1893 33.9796 37.1932 34.5009 37.135C34.0501 36.9144 33.4168 36.8271 32.8966 36.9546C32.8845 36.604 32.7265 36.3867 32.6309 36.1123C33.5103 35.7997 35.5863 33.7501 36.7542 34.4288C37.3106 34.7517 37.5471 36.5955 37.5902 37.492C37.6262 38.2357 37.5225 38.986 37.2182 39.3799Z" fill="#D33833"/>
<path d="M37.2182 39.3799C35.6541 39.3342 34.2409 39.1491 33.0036 38.8015C33.0877 38.2963 32.9304 37.8005 33.0567 37.4366C33.4016 37.1893 33.9796 37.1932 34.5009 37.135C34.0501 36.9144 33.4168 36.8271 32.8966 36.9546C32.8845 36.604 32.7265 36.3867 32.6309 36.1123C33.5103 35.7997 35.5863 33.7501 36.7542 34.4288C37.3106 34.7517 37.5471 36.5955 37.5902 37.492C37.6262 38.2357 37.5225 38.986 37.2182 39.3799Z" stroke="#D33833" stroke-width="2.5"/>
<path fill-rule="evenodd" clip-rule="evenodd" d="M29.7401 36.8327C29.736 36.9506 29.731 37.0693 29.7263 37.1883C29.2379 37.5078 28.4495 37.504 27.9135 37.7725C28.7036 37.807 29.3256 37.9965 29.8637 38.2637C29.8518 38.5606 29.8405 38.8572 29.8289 39.1542C28.9337 39.7645 28.1159 40.6735 27.062 41.2459C26.5636 41.5166 24.8147 42.2131 24.2845 42.09C23.9845 42.0207 23.9575 41.6499 23.8376 41.3004C23.5821 40.552 22.9939 39.3607 22.9426 38.2342C22.8772 36.8113 22.733 34.4265 24.2726 34.7196C25.5147 34.9556 26.9593 35.5255 27.921 36.0488C28.5086 36.3689 28.8485 36.7644 29.7401 36.8327Z" fill="#D33833"/>
<path d="M29.7401 36.8327C29.736 36.9506 29.731 37.0693 29.7263 37.1883C29.2379 37.5078 28.4495 37.504 27.9135 37.7725C28.7036 37.807 29.3256 37.9965 29.8637 38.2637C29.8518 38.5606 29.8405 38.8572 29.8289 39.1542C28.9337 39.7645 28.1159 40.6735 27.062 41.2459C26.5636 41.5166 24.8147 42.2131 24.2845 42.09C23.9845 42.0207 23.9575 41.6499 23.8376 41.3004C23.5821 40.552 22.9939 39.3607 22.9426 38.2342C22.8772 36.8113 22.733 34.4265 24.2726 34.7196C25.5147 34.9556 26.9593 35.5255 27.921 36.0488C28.5086 36.3689 28.8485 36.7644 29.7401 36.8327Z" stroke="#D33833" stroke-width="2.5"/>
<path fill-rule="evenodd" clip-rule="evenodd" d="M30.6278 38.5308C30.4912 37.7557 30.3333 37.5346 30.3944 36.8584C32.4699 35.48 32.8595 39.2258 30.6278 38.5308Z" fill="#D33833"/>
<path d="M30.6278 38.5308C30.4912 37.7557 30.3333 37.5346 30.3944 36.8584C32.4699 35.48 32.8595 39.2258 30.6278 38.5308Z" stroke="#D33833" stroke-width="2.5"/>
<path fill-rule="evenodd" clip-rule="evenodd" d="M33.6344 39.1592C33.6344 39.1592 32.9889 38.2409 33.4499 37.9654C33.911 37.69 34.372 37.9657 34.6485 37.5065C34.9251 37.0474 34.6485 36.7719 34.7406 36.2211C34.8327 35.6702 35.294 35.5782 35.7547 35.4865C36.2154 35.3947 37.5064 35.211 37.6905 35.6702L37.1374 34.0175L36.0312 33.6504L32.5282 35.6702L32.3438 36.6802V38.7" fill="#EF3D3A"/>
<path fill-rule="evenodd" clip-rule="evenodd" d="M23.9552 42.189C23.8445 40.7561 23.7273 39.3252 23.5969 37.8937C23.4018 35.7563 24.1124 36.1292 25.9726 36.1292C26.2567 36.1292 27.722 36.4667 27.8268 36.6801C28.3296 37.7028 26.9861 37.4756 28.4059 38.2468C29.6045 38.8977 31.7217 37.8516 31.2375 36.4047C30.9665 36.083 29.8254 36.3044 29.4164 36.0932C28.6963 35.7213 27.9761 35.3495 27.2559 34.9776C26.3397 34.5041 24.222 33.8139 23.2451 34.4755C20.7699 36.1521 23.4013 40.3413 24.2843 42.0903" fill="#EF3D3A"/>
<path fill-rule="evenodd" clip-rule="evenodd" d="M26.3789 9.65909C23.8664 9.07626 22.6179 10.7063 21.8563 12.397C21.1763 12.2328 21.4469 11.3117 21.6187 10.8424C22.0684 9.61062 23.8808 7.97091 25.3616 8.19319C25.9988 8.28877 26.8612 8.86913 26.3789 9.65909Z" fill="#231F20"/>
<path fill-rule="evenodd" clip-rule="evenodd" d="M38.6222 12.509C38.6617 12.5106 38.7018 12.512 38.7414 12.5137C39.3091 13.6884 39.8006 14.9329 40.5168 15.9699C40.037 17.0829 36.8835 18.0679 36.9322 16.0693C37.6142 15.7724 38.7914 16.0087 39.396 15.6294C39.0464 14.6739 38.542 13.8606 38.6222 12.509Z" fill="#231F20"/>
<path fill-rule="evenodd" clip-rule="evenodd" d="M27.6653 12.5395C28.204 13.5231 28.3793 14.5566 29.1451 15.3C29.49 15.6346 30.1606 16.0426 29.8282 16.9733C29.7505 17.1928 29.1827 17.6823 28.855 17.7784C27.6578 18.1304 24.8682 17.8511 25.8129 16.3646C26.803 16.4106 28.1338 17.005 28.8738 16.2891C28.3055 15.3843 27.2923 13.5942 27.6653 12.5395Z" fill="#231F20"/>
<path fill-rule="evenodd" clip-rule="evenodd" d="M38.1712 22.5363C36.3687 23.6895 34.3587 24.9436 31.4052 24.6528C30.7741 24.1063 30.5335 22.8902 31.1466 22.087C31.4658 22.6335 31.2653 23.6386 32.1547 23.7898C33.8305 24.0754 35.781 22.7687 36.9865 22.3121C37.734 21.0569 36.9221 20.5952 36.2487 19.7874C34.8701 18.1322 33.0208 16.0808 33.088 13.6029C33.6453 13.2005 33.6934 14.2171 33.7733 14.4022C34.4931 16.0802 36.3048 18.2262 37.627 19.6623C37.9517 20.016 38.4862 20.3553 38.5457 20.5892C38.7172 21.2692 38.0996 22.084 38.1712 22.5363Z" fill="#231F20"/>
<path fill-rule="evenodd" clip-rule="evenodd" d="M14.4078 21.3223C13.8428 21.0012 13.7083 19.5865 13.045 19.5463C12.0971 19.489 12.2699 21.3816 12.2737 22.4883C11.6212 21.8983 11.5065 20.0818 11.9858 19.1488C11.4395 18.8817 11.1956 19.4436 10.8926 19.6416C11.282 16.8238 15.0311 18.3346 14.4078 21.3223Z" fill="#231F20"/>
<path fill-rule="evenodd" clip-rule="evenodd" d="M39.3198 23.7096C38.4808 25.3003 37.2938 27.0521 34.8317 27.103C34.7817 26.5893 34.7432 25.8076 34.8345 25.4983C36.7167 25.3182 37.8787 24.364 39.3198 23.7096Z" fill="#231F20"/>
<path fill-rule="evenodd" clip-rule="evenodd" d="M27.5234 24.7412C29.0938 25.5636 31.9799 25.652 34.1143 25.5898C34.2287 26.0556 34.226 26.6309 34.2304 27.1989C31.4868 27.3353 28.2429 26.659 27.5234 24.7412Z" fill="#231F20"/>
<path fill-rule="evenodd" clip-rule="evenodd" d="M27.2254 26.2745C28.3113 28.9901 32.0436 28.6775 35.191 28.6026C35.0525 28.9551 34.7521 29.3716 34.3788 29.5223C33.3702 29.931 30.5884 30.2412 29.1883 29.5005C28.3003 29.0303 27.7297 27.9679 27.2432 27.3452C27.0083 27.0444 25.8383 26.2762 27.2254 26.2745Z" fill="#231F20"/>
<path fill-rule="evenodd" clip-rule="evenodd" d="M38.0407 41.2537C36.7664 43.4275 35.547 45.6602 34.0352 47.5776C34.669 45.7214 34.9403 42.6146 35.036 40.2462C36.362 39.6281 37.4975 40.3853 38.0407 41.2537Z" fill="#81B0C4"/>
<path fill-rule="evenodd" clip-rule="evenodd" d="M44.8992 49.067C43.4725 49.3514 42.47 50.7325 41.0781 50.6439C41.8431 49.5698 43.1835 49.1171 44.8992 49.067Z" fill="#231F20"/>
<path fill-rule="evenodd" clip-rule="evenodd" d="M45.5286 51.2908C44.3657 51.4131 42.9998 51.6007 41.8203 51.5041C42.3787 50.6546 44.5299 50.9477 45.5286 51.2908Z" fill="#231F20"/>
<path fill-rule="evenodd" clip-rule="evenodd" d="M45.9315 53.2081C44.6245 53.2363 43.0001 53.2104 41.7578 53.1066C42.4926 52.3205 45.0839 52.8149 45.9315 53.2081Z" fill="#231F20"/>
<path fill-rule="evenodd" clip-rule="evenodd" d="M35.5819 58.4549C35.7694 60.0897 36.4201 61.7462 36.3385 63.5365C35.6159 63.7792 35.2008 63.9915 34.2326 63.9902C34.1643 62.4686 33.9599 60.1426 34.021 58.6921C34.4972 58.7235 35.1994 58.3533 35.5819 58.4549Z" fill="#DCD9D8"/>
<path fill-rule="evenodd" clip-rule="evenodd" d="M33.474 34.3615C32.8178 34.7881 32.2589 35.3208 31.6286 35.7764C30.231 35.8453 29.4682 35.68 28.4414 34.8807C28.4583 34.8165 28.5614 34.8452 28.5653 34.7664C30.0614 35.4305 31.9633 34.4959 33.474 34.3615Z" fill="#F0D6B7"/>
<path fill-rule="evenodd" clip-rule="evenodd" d="M25.6211 44.5194C26.0322 42.7452 27.6428 41.8264 29.1055 40.8494C30.6151 42.7577 31.5333 45.2118 32.5444 47.5801C30.1555 46.8629 27.7147 45.6991 25.6211 44.5194Z" fill="#81B0C4"/>
<path fill-rule="evenodd" clip-rule="evenodd" d="M34.021 58.692C33.9599 60.1424 34.1643 62.4685 34.2326 63.9901C35.2008 63.9914 35.6159 63.7791 36.3385 63.5364C36.4201 61.746 35.7694 60.0896 35.5819 58.4548C35.1994 58.3531 34.4972 58.7234 34.021 58.692ZM18.9452 50.4428C19.5836 56.2885 20.5083 61.2025 22.2044 66.379C25.9685 67.5174 30.5064 67.6166 33.8335 66.5894C33.2226 63.6677 33.4895 60.1108 33.1325 56.993C32.8634 54.6496 33.0005 52.2918 32.6316 49.901C28.6001 49.0656 22.9017 49.7057 18.9452 50.4428ZM33.5849 49.9377C33.5509 52.4483 33.6977 54.9248 33.8902 57.4385C34.8581 57.2938 35.5149 57.1971 36.4143 57.0008C36.1222 54.5808 36.1582 51.8577 35.5633 49.717C34.8758 49.7236 34.2705 49.709 33.5849 49.9377ZM38.495 49.533C38.0357 49.4281 37.5008 49.5289 37.0619 49.5374C37.2682 51.584 37.7688 53.8423 37.945 55.9905C38.6355 56.0119 39.0044 55.6875 39.5724 55.5784C39.6029 53.6927 39.4071 51.0948 38.495 49.533ZM45.9297 56.2986C47.3692 55.9505 48.2743 54.1945 47.8717 52.3913C47.6015 51.1793 47.1203 48.8972 46.6054 48.1219C46.2248 47.5485 45.193 46.7977 44.3692 47.3231C43.029 48.1779 40.6681 48.426 39.6908 49.4606C40.1809 51.0857 40.333 53.3178 40.5351 55.377C42.2093 55.4809 44.2694 54.9181 45.6618 55.5154C44.6897 55.829 43.4284 55.8315 42.5885 56.2885C43.2749 56.6187 44.8819 56.552 45.9297 56.2986ZM32.544 47.5799C31.5329 45.2116 30.6148 42.7575 29.1051 40.8492C27.6424 41.8262 26.0318 42.745 25.6207 44.5191C27.7143 45.6989 30.1551 46.8626 32.544 47.5799ZM35.0362 40.2462C34.9405 42.6147 34.6692 45.7215 34.0354 47.5777C35.5473 45.6603 36.7666 43.4276 38.0409 41.2538C37.4978 40.3853 36.3623 39.6282 35.0362 40.2462ZM32.211 39.2464C31.6383 39.185 31.1521 39.9022 30.4074 39.5921C30.2367 39.7799 30.0816 39.9835 29.9076 40.1669C31.5525 42.1413 32.3 44.9425 33.5705 47.2628C34.2522 45.034 34.1737 42.5921 34.3238 40.1595C33.3872 40.2187 32.8675 39.3158 32.211 39.2464ZM30.3944 36.8583C30.3332 37.5345 30.4911 37.7557 30.6278 38.5308C32.8595 39.2257 32.4699 35.48 30.3944 36.8583ZM27.9195 36.0491C26.9579 35.5257 25.5132 34.9559 24.2712 34.7198C22.7315 34.4265 22.8758 36.8115 22.9411 38.2344C22.9924 39.361 23.5806 40.5523 23.8361 41.3007C23.956 41.6501 23.983 42.0209 24.283 42.0903C24.8132 42.2134 26.5622 41.5168 27.0605 41.2461C28.1145 40.6737 28.9322 39.7648 29.8274 39.1544C29.839 38.8575 29.8504 38.5608 29.8623 38.2639C29.3241 37.9967 28.7022 37.8072 27.9121 37.7728C28.448 37.5042 29.2364 37.5081 29.7248 37.1886C29.7295 37.0696 29.7345 36.9509 29.7387 36.833C28.8471 36.7647 28.5072 36.3691 27.9195 36.0491ZM18.7343 34.3873C17.9362 35.1944 20.9729 36.2945 21.9397 36.3537C21.9343 35.8431 22.2319 35.3616 22.1719 34.9952C21.0236 34.7944 19.5145 34.9269 18.7343 34.3873ZM28.5661 34.7664C28.5622 34.8451 28.4591 34.8165 28.4422 34.8807C29.469 35.68 30.2317 35.8453 31.6294 35.7764C32.2597 35.3208 32.8186 34.7881 33.4748 34.3615C31.964 34.4959 30.0622 35.4304 28.5661 34.7664ZM37.5904 37.4918C37.5473 36.5953 37.3108 34.7515 36.7544 34.4287C35.5866 33.7497 33.5105 35.7995 32.6311 36.1122C32.7268 36.3865 32.8847 36.6038 32.8968 36.9545C33.417 36.8269 34.0503 36.9142 34.5011 37.1349C33.9798 37.193 33.4018 37.1891 33.057 37.4365C32.9306 37.8003 33.0879 38.2961 33.0039 38.8013C34.2411 39.1489 35.6543 39.334 37.2185 39.3797C37.5227 38.9858 37.6264 38.2355 37.5904 37.4918ZM17.3907 35.1679C17.1401 34.99 15.4446 32.7928 15.2123 32.884C12.1444 34.089 9.27571 36.1728 6.71224 38.1435C9.15635 43.367 10.143 49.7666 10.3173 55.9347C13.1171 57.239 15.5764 59.1192 19.3757 59.3156C18.936 56.2174 18.5347 53.4533 18.2851 50.5364C17.3305 50.1356 15.9609 50.5546 15.0676 50.4122C15.06 49.3399 16.432 49.9426 16.5462 49.2215C16.6323 48.6761 15.7914 48.6348 16.0652 47.776C16.7636 48.0289 17.1304 48.5874 17.8752 48.7971C18.5558 47.3141 17.8657 44.6902 17.9638 43.4507C17.9823 43.218 18.0804 42.1614 18.6038 42.3468C19.0671 42.5109 18.5774 45.1568 18.6281 46.3299C18.6744 47.4107 18.4971 48.4565 18.9366 49.135C22.6078 48.6373 26.3385 48.3156 30.3108 48.207C29.4369 47.8336 28.3988 47.4801 27.2606 46.8411C26.6435 46.4947 24.6985 45.7738 24.5205 45.1901C24.2364 44.2599 25.2658 43.7645 25.4419 42.9671C23.5887 43.9737 23.2272 42.0022 22.7888 40.6054C22.3916 39.3403 22.1655 38.3953 22.068 37.6656C20.4716 36.9076 18.7648 36.14 17.3907 35.1679ZM35.969 33.1498C38.5252 31.9153 38.9859 37.7637 37.984 39.6477C38.1388 40.2096 38.6715 40.4247 38.8888 40.9299C37.4624 43.4749 35.878 45.8506 34.4226 48.3657C35.5052 47.6944 37.0517 48.2457 38.3258 47.7432C38.7915 47.5597 39.1286 46.4979 39.4812 45.6484C40.451 43.3114 41.4693 40.365 41.9223 38.1347C42.0246 37.6265 42.3034 36.5193 42.2409 36.067C42.1294 35.2572 41.0263 34.6567 40.4652 34.156C39.4314 33.231 38.7804 32.4171 37.7021 31.5522C37.2649 32.1951 36.3266 32.627 35.969 33.1498ZM11.5448 10.5725C10.3268 11.9072 10.5818 14.4083 10.7292 16.1876C12.9308 14.8082 15.8529 16.2967 15.8254 18.6429C16.8765 18.6151 16.2181 17.3354 16.0279 16.511C15.4066 13.8183 17.0747 10.8928 16.1036 8.43037C14.2179 8.57277 12.6688 9.33987 11.5448 10.5725ZM20.2599 2.82542C17.5025 3.60382 13.9686 5.59938 12.8355 8.06651C13.7129 7.93953 14.322 7.49883 15.1875 7.44429C15.5146 7.42308 15.9431 7.58091 16.3191 7.48781C17.0682 7.30271 17.7005 5.62968 18.2657 5.00718C18.8166 4.39928 19.4788 4.13955 19.932 3.58537C20.2232 3.44544 20.6536 3.45508 20.6702 3.01961C20.544 2.88519 20.4111 2.78273 20.2599 2.82542ZM34.6137 3.55754C31.7517 1.94924 26.9073 0.73951 23.8629 2.25113C21.4064 3.47105 18.0858 5.48948 16.9537 8.04723C18.0113 10.5154 16.6405 12.7771 16.553 15.2831C16.5065 16.6165 17.1833 17.7805 17.2351 19.232C16.8733 19.8267 15.7676 19.9 15.0022 19.8592C14.7446 18.5751 14.2935 17.1318 12.9659 16.9869C11.0873 16.7823 9.71376 18.3308 9.62842 19.949C9.52743 21.852 11.096 25.0061 13.3192 24.7871C14.178 24.7026 14.389 23.8451 15.3247 23.8539C15.8319 24.8618 14.5424 25.1783 14.4097 25.8991C14.3751 26.0853 14.5166 26.813 14.5989 27.1543C15.0028 28.816 15.903 30.9666 16.789 32.2318C17.9135 33.8365 20.1229 34.0783 22.4998 34.2356C22.9244 33.3247 24.4883 33.3996 25.5073 33.6379C24.2861 33.1561 23.1507 31.9883 22.2098 30.9545C21.1289 29.7685 20.0341 28.4962 19.9788 26.946C22.0213 29.7682 23.7087 32.2328 27.4226 33.4743C30.2328 34.413 33.5149 33.044 35.6742 31.5338C36.5702 30.906 37.1051 29.9101 37.742 28.9983C40.125 25.5843 41.237 20.7112 40.9925 15.9879C40.8919 14.04 40.8963 12.0987 40.24 10.7881C39.5542 9.41782 37.2345 8.19183 35.8767 9.43132C35.625 8.09874 37.0058 7.27462 38.6278 7.75416C37.4712 6.2676 36.2575 4.48137 34.6137 3.55754ZM39.9458 47.5088C42.1822 46.4015 46.3609 44.5283 47.763 47.5129C48.2804 48.6131 48.8874 50.4728 49.1554 51.6085C49.534 53.2107 48.745 56.5783 47.0915 57.1159C45.6311 57.5907 43.927 57.5618 42.1679 57.2098C41.9607 57.0382 41.7301 56.7391 41.5689 56.4273C40.3128 56.3788 39.1366 56.4945 38.1444 57.0087C38.2384 57.9339 37.6101 58.0824 37.021 58.273C36.5843 59.9975 37.8946 62.2496 37.581 63.822C37.3573 64.9423 35.9734 65.1155 34.9563 65.3251C34.9231 65.9477 35.0008 66.4673 35.0702 66.994C34.8377 67.8476 33.7945 68.3335 32.8061 68.4525C29.5542 68.8419 24.6166 69.0169 21.4887 67.8966C20.6158 65.7642 19.9282 63.1707 19.2012 60.7357C16.1505 61.0602 13.6832 59.4247 11.3572 58.3531C10.5518 57.9813 9.43777 57.7765 9.13691 57.138C8.84524 56.5198 8.96459 55.3351 8.89222 54.216C8.70804 51.3578 8.55032 48.6009 7.7925 45.6744C7.45223 44.3611 6.85915 43.2023 6.4454 41.9369C6.06299 40.7641 5.39485 39.3147 5.2206 38.1452C4.96222 36.4118 6.60096 36.3154 7.64883 35.5643C9.26869 34.4028 10.5402 33.7604 12.2945 32.7121C12.8141 32.4017 14.3811 31.6159 14.5593 31.2539C14.9136 30.5364 13.9511 29.5247 13.6938 28.9623C13.2867 28.0729 13.0745 27.3173 13.0161 26.4398C11.5445 26.2081 10.4289 25.3358 9.75503 24.3522C8.64031 22.7244 7.86725 19.7127 8.83171 17.4219C8.90735 17.2414 9.28456 16.8867 9.3402 16.6096C9.44997 16.0639 9.13365 15.3384 9.11399 14.7581C9.01266 11.7805 9.61979 9.21509 11.6323 8.31715C12.4493 5.07549 15.3735 3.9977 18.1285 2.38664C19.1583 1.78453 20.2936 1.39973 21.466 0.970047C25.6718 -0.571594 32.1247 -0.281273 35.6153 2.34808C37.0954 3.46307 39.4613 5.81726 40.3075 7.52168C42.5426 12.0216 42.3838 19.5419 40.8205 25.0158C40.6103 25.7506 40.3056 26.8309 39.88 27.7137C39.5832 28.3301 38.6609 29.5636 38.7729 30.1078C38.8883 30.6705 40.8758 32.1736 41.302 32.5829C42.0694 33.3203 43.5274 34.2989 43.6455 35.2294C43.7724 36.2196 43.2074 37.5742 42.9212 38.5297C41.9643 41.7184 41.0307 44.666 39.9458 47.5088Z" fill="#231F20"/>
<path fill-rule="evenodd" clip-rule="evenodd" d="M25.0255 25.4355C25.1468 25.2746 25.8139 25.0303 26.7473 25.4779C26.7473 25.4779 25.6411 25.6616 25.7331 27.4985L25.2721 27.4065C25.2721 27.4065 24.7958 25.7409 25.0255 25.4355Z" fill="#F7E4CD"/>
<path fill-rule="evenodd" clip-rule="evenodd" d="M33.1079 41.2242C33.1079 41.5029 32.8808 41.729 32.6007 41.729C32.3208 41.729 32.0938 41.5029 32.0938 41.2242C32.0938 40.9454 32.3208 40.719 32.6007 40.719C32.8808 40.719 33.1079 40.9454 33.1079 41.2242Z" fill="#1D1919"/>
<path fill-rule="evenodd" clip-rule="evenodd" d="M33.6137 43.5655C33.6137 43.8443 33.3867 44.0703 33.1065 44.0703C32.8267 44.0703 32.5996 43.8443 32.5996 43.5655C32.5996 43.2867 32.8267 43.0603 33.1065 43.0603C33.3867 43.0603 33.6137 43.2867 33.6137 43.5655Z" fill="#1D1919"/>
</svg>
