<svg width="50" height="60" viewBox="0 0 50 60" fill="none" xmlns="http://www.w3.org/2000/svg">
<path d="M42.2248 53.9166V38.0702H47.5067V59.1992H0V38.0702H5.28183V53.9166H42.2248Z" fill="#BCBBBC"/>
<path d="M10.5693 48.634H36.9785V43.3522H10.5693V48.634ZM34.2385 -5.34058e-05L30.0004 3.15204L45.7618 24.3425L49.9998 21.1904L34.2385 -5.34058e-05ZM21.1383 12.4929L41.4314 29.3937L44.8116 25.3349L24.5185 8.43417L21.1383 12.4929ZM14.5134 24.2378L38.4537 35.3873L40.6835 30.5993L16.7433 19.4497L14.5134 24.2378ZM11.0938 36.6127L36.9385 42.0444L38.0248 36.8754L12.1801 31.4436L11.0938 36.6127Z" fill="#F48023"/>
</svg>
